<?xml version="1.0" standalone="no"?>
<!DOCTYPE svg PUBLIC "-//W3C//DTD SVG 20010904//EN"
 "http://www.w3.org/TR/2001/REC-SVG-20010904/DTD/svg10.dtd">
<svg version="1.0" xmlns="http://www.w3.org/2000/svg"
 width="267.000000pt" height="267.000000pt" viewBox="0 0 267.000000 267.000000"
 preserveAspectRatio="xMidYMid meet">
<metadata>
Created by potrace 1.14, written by Peter Selinger 2001-2017
</metadata>
<g transform="translate(0.000000,267.000000) scale(0.100000,-0.100000)"
fill="#000000" stroke="none">
<path d="M710 1899 c0 -210 2 -240 15 -235 8 3 51 29 94 58 66 43 78 55 68 67
-9 11 -9 15 1 19 10 3 10 7 0 20 -11 12 -11 16 0 20 10 3 10 7 0 20 -11 12
-11 16 0 20 10 3 10 7 0 20 -11 12 -11 16 0 20 10 3 10 7 0 20 -11 12 -11 16
0 20 10 3 10 7 0 20 -11 12 -11 16 0 20 10 3 10 7 0 20 -11 12 -11 16 0 20 10
3 10 7 0 20 -11 12 -11 16 0 20 10 3 10 7 1 19 -10 12 -10 16 2 24 9 5 -21 9
-83 9 l-98 0 0 -241z"/>
<path d="M1260 1991 l0 -149 -97 -60 c-54 -32 -178 -108 -275 -168 l-178 -108
0 -202 0 -201 83 -55 c64 -43 85 -52 94 -43 9 9 9 16 0 25 -9 10 -9 14 1 17
10 4 10 8 0 21 -11 12 -11 16 0 20 10 3 10 7 0 20 -11 12 -11 16 0 20 10 3 10
7 0 20 -11 12 -11 16 0 20 10 3 10 7 0 20 -11 12 -11 16 0 20 10 3 10 7 0 20
-11 12 -11 16 0 20 10 3 10 7 0 20 -11 12 -11 16 0 20 10 3 10 7 0 20 -11 12
-11 16 0 20 10 3 10 7 0 20 -10 11 -10 16 -1 19 7 2 10 10 8 16 -3 7 -1 17 3
22 12 18 350 224 356 217 3 -3 6 -110 6 -239 0 -128 3 -233 7 -233 18 0 182
105 186 119 2 9 3 42 2 74 -1 32 2 57 8 57 5 0 3 7 -4 17 -11 13 -11 17 -1 21
10 3 10 7 0 20 -11 12 -11 16 0 20 10 3 10 7 0 20 -11 12 -11 16 0 20 10 3 10
7 0 20 -11 12 -11 16 0 20 10 3 10 7 0 20 -11 12 -11 16 0 20 10 3 10 7 0 20
-11 12 -11 16 0 20 10 3 10 7 0 20 -11 12 -11 16 0 20 10 3 10 7 0 20 -11 12
-11 16 0 20 10 3 10 7 0 20 -11 12 -11 16 0 20 10 3 10 7 0 20 -11 12 -11 16
0 20 10 3 10 7 0 20 -11 12 -11 16 0 20 10 3 10 7 0 20 -11 12 -11 16 0 20 10
3 10 7 0 20 -11 12 -11 16 0 20 10 3 10 7 0 20 -11 12 -11 16 0 20 10 3 10 7
1 19 -10 11 -10 16 0 23 8 4 9 10 3 14 -5 3 -8 33 -7 66 l2 60 -98 0 -99 0 0
-149z"/>
<path d="M1819 1628 c0 -2 -1 -68 -2 -147 l-2 -145 -185 -113 c-102 -62 -227
-138 -278 -169 l-92 -55 2 -201 3 -201 85 -58 c46 -32 87 -56 90 -54 3 2 5 94
5 205 0 110 2 204 5 209 3 4 83 56 178 116 115 72 176 105 183 98 6 -6 9 -98
7 -247 l-3 -236 97 0 c100 0 120 8 96 37 -10 13 -11 17 0 21 10 3 10 7 0 20
-11 12 -11 16 0 20 10 3 10 7 0 20 -11 12 -11 16 0 20 10 3 10 7 1 19 -8 9 -9
17 -3 21 6 4 9 163 9 412 l0 405 -97 3 c-54 1 -98 1 -99 0z"/>
</g>
</svg>
